<svg id="Layer_1" data-name="Layer 1" xmlns="http://www.w3.org/2000/svg" viewBox="0 0 616.46 621.82"><defs><style>.cls-1{fill:#fff;}</style></defs><path class="cls-1" d="M320.85,603.5q35.19-17.41,49.26-47.58,8.37,36.36,31.84,53.61a48.63,48.63,0,0,0,29.49,9.72h3.3q16.92,0,38.2-14.24,16.43-10.89,21.12-18.09,27.13,28.64,62.83,28.64,7.38,0,11.23-1.42t10.72-16q7.38-15.24,7.37-24.63,0-26.7-28.6-44.59,16.82-9.46,63.52-12.48,27.15-1.66,91.82-1.67,13.57,0,50.61,4.35,5.69-8.37,14.07-25.13,2-4,1.68-5c-.23-.67-1.57-1.12-4-1.34q-65-6.87-85.79-10.39A195,195,0,0,1,658.16,469q-1-.16-18.77-6.7h-.26Q606.45,451.38,603,449.88q19.77-10.72,75.06-25l71.55-17.42q12.23-3.35,18.1-10.72,12.06-25.63,12.06-31.84,0-7.2-20.69-19.68-13-7.85-21.73-10.75,9.41-5.72,13-11.67a16,16,0,0,0,2.22-8.22q0-3.35-2.22-4.12-15-4.77-24.79-4.78-2.55,0-8.78,5.67a85.18,85.18,0,0,0-12.57,14.67,7.06,7.06,0,0,0-1.55,3.34.59.59,0,0,0,.66.67c.75,0,1.86-.67,3.34-2q8.67-7.9,13.79-7.9a48.32,48.32,0,0,1,10.39,1.56q6.61,1.56,6.61,2.67-3.23,3.66-11,8.11l-9.78,5.78q-4.45,3.23-4.45,5,0,1.23,1.89,1.23a5.91,5.91,0,0,0,.81-.07c-.72,1.07-1.46,2.2-2.21,3.41Q704,361.92,704,368.12q0,11.06,13.07,19.1-139.39,29.77-175,75.11h-.18q-13.73,17.43-12.23,19.43c.23.34.78.51,1.68.51a93.19,93.19,0,0,0,9.55-1.43,76.38,76.38,0,0,1,12.4-1.42,33,33,0,0,1,3.52.16q44.07,7.05,52.78,10.56-54.06,12.18-86.84,38.64h-.36q-21.78,20.94-27,28.65-28.5,25-60.16,25h-3.3q-13.06,0-23.12-10Q393.56,557.1,385,517.55q-4.69-22.62-9.38-70.2-4-39.87-7.54-48.08Q357,410.67,353,432.61q10.22,83.94,10.22,102a23.19,23.19,0,0,1-.17,3.35q-4.35,18.94-44.9,33-32.68,11.4-53.62,11.39-25.31,0-33.85-15.24-3,3.35-7.54,17.34T218.63,604q10.4,15.25,35.53,15.25A147.19,147.19,0,0,0,320.85,603.5ZM533.1,552.74q12.06,0,20.27,7.37,7.2,6.52,7.21,14.07a10,10,0,0,1-.84,4.19q-2,1.85-6.53,1.84-9.72,0-23.63-6.45T513,561.28Q519.35,552.75,533.1,552.74Z" transform="translate(-204.26 -197.02)"/><path class="cls-1" d="M697,275.12Q689.67,256,683.1,256q-10.23,0-24.9,17Q644,289.57,638.63,306.69q-4.77,15.12-40.68,15.12h-.89a35.17,35.17,0,0,1-12.9-2.22q-6.45-2.67-6.45-7.12a18.47,18.47,0,0,1,.39-3.17,18.27,18.27,0,0,0,.39-3.16c0-1.78-.44-2.67-1.33-2.67s-2.15.85-3.78,2.55q-16.57,17.46-59.59,17.46H510.6a21.12,21.12,0,0,1-15.35-6.67q-10.11-10.12-15.78-36.35-3.12-15-6.23-46.58-2.67-26.46-5-31.9-7.33,7.56-10,22.12Q465,279.8,465,291.8a14.61,14.61,0,0,1-.11,2.22q-2.88,12.56-29.79,21.9-21.67,7.56-35.58,7.56-16.78,0-22.45-10.12-2,2.22-5,11.51t-3,12.95q6.9,10.11,23.57,10.11a97.64,97.64,0,0,0,44.25-10.45q23.34-11.55,32.68-31.57,5.56,24.12,21.13,35.57a32.24,32.24,0,0,0,19.56,6.45h1.86a90.06,90.06,0,0,0,33.13-6.22q13.46-5.34,22-13.45,9,18,29.8,18h1.11a47.71,47.71,0,0,0,21.57-5.55q16.78-8.56,23.79-27.13,18,18.12,41.46,18.12a23.32,23.32,0,0,0,7.17-.83q2.4-.84,7-10.51,4.78-10.11,4.78-16.34Q703.89,292.91,697,275.12Zm-10.56,34.35q-7.34,0-17-4.45-10.56-4.77-15.56-11.45,7.54-14.44,18.34-14.45,4.11,0,9.45,11.23,5.12,10.66,5.11,17A5.52,5.52,0,0,1,686.44,309.47Z" transform="translate(-204.26 -197.02)"/><path class="cls-1" d="M234.82,416.44q21.57,5.78,39.91,5.78a80,80,0,0,0,17.68-1.78q17.89-4.12,36-32.52t18.07-53a76.81,76.81,0,0,0-7.45-32.9,82.61,82.61,0,0,0-14.45-21.67q-7.35-7.78-10.12-7.79-6,0-16.45,18.12-10.91,19-10.9,33.13,0,26,21.35,26,14.55,0,23.23-15.67,4.67,8.22,4.67,13.34,0,5.67-9.45,18.56-12.67,17.57-33.46,30.46-15.8,9.78-40.14,12.78a59.4,59.4,0,0,1-7,.33q-4.89,0-14.51-.55t-12.06-.56c-2.3,0-3.49.19-3.56.56Q215.48,411.22,234.82,416.44ZM318,323.28a14.38,14.38,0,0,1-6.9,2.12,18.29,18.29,0,0,1-10-2.9q-4.56-2.88-4.56-6.66,0-2.23,3.67-9.34,4-7.68,6-7.67,3.35,0,10.12,8.22,6.33,7.56,7.11,10.9C322.61,320,320.79,321.73,318,323.28Z" transform="translate(-204.26 -197.02)"/><path class="cls-1" d="M781.53,659.7a221.76,221.76,0,0,1-61.81-15.89A231.49,231.49,0,0,1,682,623.24Q666.58,613,663.68,613q-11.22,0-27.68,14.23-15,12.9-15,17.57c0,.44.49.66,1.45.66q3.88,0,22-2.66T664,640.14q2.78,0,16.56,10.89c-23.94,5.34-43.25,14-57.85,25.87q-14.44,13.89-17.9,19-18.9,16.58-39.91,16.57h-5.55q-10.89,0-27.35-8.56-1.34,0-3.11,11.22a112.28,112.28,0,0,0-1.45,13.57q2.77,3,9.56,5.44c4.15,1.49,6.27,2.41,6.34,2.78a14.08,14.08,0,0,1,.45,3.67q0,6.78-4.78,15.67A106.13,106.13,0,0,1,510,791.11q-17.83,13.73-35.52,14.95-13.23.9-33-1c-5.92-.59-8.89-.52-8.89.23s2.52,2,7.56,4q23.79,9.56,52.14,9.56a46.2,46.2,0,0,0,14-1.78q18.9-6.23,35.8-39.91a179.17,179.17,0,0,0,10.45-26.23q2-7,4.11-14h8q11.22,0,25.34-9.45,10.91-7.22,14-12,18,19,41.69,19a22.54,22.54,0,0,0,7.45-1q2.56-.94,7.12-10.61,4.89-10.12,4.89-16.34,0-17.79-19.12-29.68c11.93-4.82,23-7.3,33.06-7.3q9,0,35.68,3.77,40.47,5.79,53.26,7.34a129,129,0,0,0,14.67-19C783.38,660.52,783,659.85,781.53,659.7ZM648.08,707a6.67,6.67,0,0,1-.56,2.78,6.33,6.33,0,0,1-4.33,1.22q-6.45,0-15.68-4.28t-11-8.28q4.22-5.67,13.34-5.67a19.4,19.4,0,0,1,13.45,4.89Q648.07,702,648.08,707Z" transform="translate(-204.26 -197.02)"/><path class="cls-1" d="M365,728.24a64.93,64.93,0,0,0,9-33.23q0-15.45-20.46-29.68-16.9-11.79-25.35-11.79a108.28,108.28,0,0,0-7.67,23.35q-3.78,7.33-9.34,21.45-8.12,20.89-8.11,30,0,22.46,21.12,22.46Q351.71,750.81,365,728.24Zm-35.91-1.89a14.57,14.57,0,0,1-10.06-3.83,12.15,12.15,0,0,1-4.28-9.39q0-12.57,10.12-33.24,10,2.55,23.23,12.67,14,10.68,14,17.56,0,4.56-10.56,10.23A47.29,47.29,0,0,1,329.13,726.35Z" transform="translate(-204.26 -197.02)"/><path class="cls-1" d="M516.09,373.29Q507,366.67,505,366.67q-1.23,0-15.68,19.9a5.12,5.12,0,0,0,.11-.78q0-2-9.06-8.61t-11.06-6.62q-.55,0-8,9.67-6.9,9-8.57,11.56,19.68,14.34,20.13,14.34c1,0,3.55-2.18,7.56-6.55q6.45-6.9,8.34-11.45,19.11,14.12,19.78,14.11,1.89,0,9-8.11,7.56-8.56,7.56-12.23Q525.15,379.91,516.09,373.29Z" transform="translate(-204.26 -197.02)"/><path class="cls-1" d="M300.47,628.49q-9.06-6.62-11.06-6.62-1.23,0-15.68,19.9a4.34,4.34,0,0,0,.12-.78q0-2-9.06-8.61t-11.07-6.61q-.56,0-8,9.67-6.9,9-8.56,11.56,19.68,14.34,20.12,14.34,1.56,0,7.56-6.56,6.45-6.9,8.34-11.45,19.13,14.11,19.79,14.12,1.89,0,9-8.12,7.56-8.57,7.56-12.23Q309.53,635.11,300.47,628.49Z" transform="translate(-204.26 -197.02)"/><path class="cls-1" d="M520.31,684q7.56-8.57,7.56-12.23,0-2-9.06-8.61t-11.06-6.62q-.56,0-8,9.67-6.89,9-8.56,11.56,19.68,14.34,20.12,14.34Q513.19,692.11,520.31,684Z" transform="translate(-204.26 -197.02)"/><path class="cls-1" d="M756,600.5q-2.34,4.66-2.34,13.23,11.67-7,29.91-16.34,19.11-9.55,26.79-13.23a109.56,109.56,0,0,0,1.56-11q-5.12,0-34.36,14.67Q762.26,595.5,756,600.5Z" transform="translate(-204.26 -197.02)"/><path class="cls-1" d="M482.07,790.84q7.67-2.77,7.56-3.44-.45-2.34-20.68-1-28.24,1.89-48.36,1.89-15.34,0-18.57-1.45-2.67-1.11,0-2.67,9.23-3.66,15.46-5.56a25.41,25.41,0,0,0,7.67-5.78c2.29-2.37,3.89-3.55,4.78-3.55q3.56,0,5.78,8.33,5.44-5.45,5.45-9,0-2.45-2.34-6.78-2.67-5-5.56-5.56c-1.48-.29-3.26.78-5.33,3.23a75.71,75.71,0,0,1-7.12,7.78,24.52,24.52,0,0,1-8.12,4.44,47.78,47.78,0,0,0-7,2.89q-3.56,2.34-8,8.95t-4.45,10a2,2,0,0,0,.33,1.22q2.56,3.35,24.46,3.34,33.92,0,50.92-3.23A86.06,86.06,0,0,0,482.07,790.84Z" transform="translate(-204.26 -197.02)"/><path class="cls-1" d="M344.66,287.55a18.77,18.77,0,0,0,4.27-.87,55.24,55.24,0,0,0,14.21-6.8,66.21,66.21,0,0,0,14.27-11.81q2.74,1,8.34,6.34,2.67-1.8,3.8-6.34,0-2.06-7-7.2a23.49,23.49,0,0,0,1.73-9.47,11.61,11.61,0,0,0-1.86-6.8c-1-1.47-2-2.2-2.94-2.2q-3.54,0-7.7,5.43t-4.17,9.91q0,5.4,5.33,8a109.31,109.31,0,0,1-9.54,7.54q-9.06,6.74-15,10.4-4.47,2.73-4.47,3.54C343.93,287.44,344.17,287.55,344.66,287.55Zm27.75-32.21a4.57,4.57,0,0,1,1.57-3,4.69,4.69,0,0,1,3.43-1.64q2.07,0,2.07,4.14a9.34,9.34,0,0,1-.87,4Q372.42,256.41,372.41,255.34Z" transform="translate(-204.26 -197.02)"/><path class="cls-1" d="M364.47,261.81a9.16,9.16,0,0,1-2.53-6c0-1.42.95-3.78,2.87-7.07a46.52,46.52,0,0,1,4.83-7,33.38,33.38,0,0,1,6-5.23q4.8-3.41,7.87-3.4,7.88,0,8.47,11.4,4.2-5.34,4.2-7.6a12.57,12.57,0,0,0-2.26-7.07,8.41,8.41,0,0,0-7.21-4.14q-9.54,0-19.61,13.21-9.27,12.21-9.27,20.54a15,15,0,0,0,1.8,7.6C361,265.74,362.6,264,364.47,261.81Z" transform="translate(-204.26 -197.02)"/><path class="cls-1" d="M458.77,469.47c0-.89-.2-1.33-.59-1.33q-1.94,0-6.08,8.44-4.59,9-4.59,15.26,0,8.45,3.85,13.34c2.08,2.46,4.25,3.7,6.52,3.7a26.93,26.93,0,0,0,14.82-4.59q3.85-3,7.7-6.08a20.91,20.91,0,0,0,7.41,1.34q11,0,20.6-9.78,5.32-5.34,8.74-15.11A46,46,0,0,0,520,460.29a33.91,33.91,0,0,0-1.63-10.23c-1.08-3.45-2.27-5.18-3.55-5.18q-1.93,2.82-7.56,13.92a24.16,24.16,0,0,1,4.3,13.78q-7.11,9.19-19.86,9.19-1.92,0-2.37-4.15c.1-3.65.15-7.31.15-11q-.3-8.75-3.11-8.74-1.79,0-3.56,9-2.22,11.42-5.18,16.3-4.45,7.56-14.08,7.56-6.22,0-6.22-8.3A50.62,50.62,0,0,1,458,475C458.52,471.92,458.77,470.06,458.77,469.47Z" transform="translate(-204.26 -197.02)"/><path class="cls-1" d="M230.83,489.43q6.34-8.67,6.34-18.12a15.6,15.6,0,0,0-3.5-10.45,11.14,11.14,0,0,0-5.77-3.79c.35-.87.73-2,1.15-3.44A46.93,46.93,0,0,0,231,440.36q0-14.1-9-20.32a64.42,64.42,0,0,0-5.86,7,27.53,27.53,0,0,1,8.08,13.05,51.17,51.17,0,0,1,1.63,12.54c.06,1.76.14,3.15.22,4.19-.23,0-.46,0-.69,0q-5.34,0-13.46,13.34-7.67,12.78-7.67,19.45,0,9.22,10.23,9.23Q223.83,498.77,230.83,489.43Zm-21-6.56c0-1.93,1.15-4.61,3.45-8.06s4.33-5.17,6.11-5.17a14.42,14.42,0,0,1,8.73,2.56,7.63,7.63,0,0,1,3.5,6.34q0,3.78-4.78,5.89a19.1,19.1,0,0,1-8,1.67Q212.49,486.1,209.82,482.87Z" transform="translate(-204.26 -197.02)"/><path class="cls-1" d="M283.16,559.22a87.22,87.22,0,0,0,13.12-4q7.67-2.78,7.56-3.45-.45-2.32-20.68-1-28.25,1.89-48.36,1.89-15.35,0-18.57-1.44-2.67-1.11,0-2.67,9.24-3.67,15.46-5.56a25.58,25.58,0,0,0,7.67-5.78c2.29-2.37,3.89-3.56,4.78-3.56q3.56,0,5.78,8.34,5.45-5.44,5.45-9,0-2.44-2.34-6.78-2.67-5-5.56-5.56c-1.48-.3-3.26.78-5.33,3.22a74.58,74.58,0,0,1-7.12,7.78,24.59,24.59,0,0,1-8.11,4.45,46.44,46.44,0,0,0-7,2.89q-3.56,2.34-8,9t-4.45,9.95a2,2,0,0,0,.33,1.22q2.57,3.33,24.46,3.33Q266.15,562.44,283.16,559.22Z" transform="translate(-204.26 -197.02)"/><path class="cls-1" d="M631.48,367.38q-2.33,4.67-2.33,13.23,11.67-7,29.9-16.34,19.13-9.56,26.8-13.23,1.54-9.23,1.55-11-5.11,0-34.35,14.67Q637.71,362.38,631.48,367.38Z" transform="translate(-204.26 -197.02)"/><path class="cls-1" d="M252.29,377.43q9.33,0,16.34-9.34Q275,359.42,275,350a15.54,15.54,0,0,0-3.51-10.45,10.56,10.56,0,0,0-8.28-4.11q-5.34,0-13.45,13.34-7.66,12.78-7.67,19.45Q242.06,377.43,252.29,377.43Zm-1.23-24c2.3-3.44,4.34-5.17,6.12-5.17a14.46,14.46,0,0,1,8.73,2.56,7.63,7.63,0,0,1,3.5,6.34c0,2.52-1.6,4.48-4.78,5.89a19.18,19.18,0,0,1-8,1.67q-6.33,0-9-3.23C247.62,359.6,248.77,356.92,251.06,353.47Z" transform="translate(-204.26 -197.02)"/><path class="cls-1" d="M567.05,660q-15.12,6.66-15.12,8.45,0,.66,7.67.33a47.23,47.23,0,0,0,12.23-1.56q6.34-1.89,16.35-14.78a42.69,42.69,0,0,0,12.67,3.22c2.37.3,3.85.22,4.45-.22s1.55-2,2.89-4.56q2.22-4.33,2.22-6.22,0-4.33-3.22-12.23-3.35-8.34-5.9-8.34-3.78,0-11.22,8.67t-7.45,12.9a7,7,0,0,0,1.55,3.56Q580.29,654.09,567.05,660Zm29.13-24.68c.67,0,1.83,1.3,3.5,3.89s2.5,4.52,2.5,5.78a4.67,4.67,0,0,1-2,.33,19.45,19.45,0,0,1-6.56-1.33c-2.44-.89-3.89-1.85-4.33-2.89Q592.29,635.31,596.18,635.3Z" transform="translate(-204.26 -197.02)"/><path class="cls-1" d="M395,623.16a15.51,15.51,0,0,0-3.5-10.45,10.56,10.56,0,0,0-8.28-4.11q-5.34,0-13.45,13.34-7.68,12.78-7.67,19.45,0,9.23,10.23,9.23,9.33,0,16.34-9.34Q394.95,632.61,395,623.16Zm-10.33,13.12a19.18,19.18,0,0,1-8,1.66q-6.33,0-9-3.22c0-1.93,1.15-4.61,3.44-8.06s4.34-5.17,6.12-5.17a14.35,14.35,0,0,1,8.72,2.56,7.6,7.6,0,0,1,3.51,6.33C389.4,632.9,387.8,634.87,384.62,636.28Z" transform="translate(-204.26 -197.02)"/><path class="cls-1" d="M416.1,390.78a4.23,4.23,0,1,0,2.95,1.24A4,4,0,0,0,416.1,390.78Z" transform="translate(-204.26 -197.02)"/><path class="cls-1" d="M439.5,399.56a26.51,26.51,0,0,1,3.33-3.3c.17-.08.75-.3,1.74-.65.6-.22.91-.44.91-.64s-.31-.39-.94-.6c-.93-.35-1.5-.57-1.71-.68a28.59,28.59,0,0,1-3.35-3.32q-2.55-2.73-4.08-3.07a5.34,5.34,0,0,0,.68-2.62c.06-.85.07-2,0-3.48-.05-1.68-.08-2.65-.08-2.91a10.42,10.42,0,0,1,.29-2,10.13,10.13,0,0,0,.26-1.3c0-.33-.13-.49-.39-.49a3.29,3.29,0,0,0-1.09.39,8.32,8.32,0,0,1-1.46.62,3.05,3.05,0,0,1-.9.11c-.47,0-1.4-.09-2.78-.26a26.23,26.23,0,0,0-3.17-.26,5.11,5.11,0,0,0-2.68.57A9.12,9.12,0,0,0,423,373c-1.19-2.27-1.94-3.72-2.23-4.34q-3.41-7.38-4.63-9a65.29,65.29,0,0,0-4.62,9c-.29.62-1,2.07-2.23,4.34a9.12,9.12,0,0,0-1.14,2.75,5.11,5.11,0,0,0-2.68-.57,26.23,26.23,0,0,0-3.17.26c-1.38.17-2.31.26-2.78.26a3.05,3.05,0,0,1-.9-.11,8.32,8.32,0,0,1-1.46-.62,3.29,3.29,0,0,0-1.09-.39c-.26,0-.39.16-.39.49a10.13,10.13,0,0,0,.26,1.3,10.42,10.42,0,0,1,.29,2c0,.26,0,1.23-.08,2.91-.05,1.47,0,2.63,0,3.48a5.34,5.34,0,0,0,.68,2.62q-1.53.34-4.08,3.07a28.59,28.59,0,0,1-3.35,3.32c-.21.11-.78.32-1.71.65-.63.21-.94.42-.94.63s.31.42.91.64c1,.35,1.57.57,1.74.65a26.51,26.51,0,0,1,3.33,3.3q2.57,2.73,4.1,3.07a5.34,5.34,0,0,0-.68,2.62c-.06.85-.07,2,0,3.5.05,1.68.08,2.65.08,2.91a9.46,9.46,0,0,1-.3,2,9.7,9.7,0,0,0-.28,1.29c0,.31.13.47.39.47a3.22,3.22,0,0,0,1.09-.39,10.39,10.39,0,0,1,1.49-.63,8.36,8.36,0,0,1,3,.08,38.55,38.55,0,0,0,3.92.36,4.91,4.91,0,0,0,2.63-.57,9.57,9.57,0,0,0,1.16,2.76c1.2,2.25,1.94,3.67,2.21,4.28q3.58,7.68,4.62,9,1-1.28,4.63-9c.27-.61,1-2,2.21-4.28a9.57,9.57,0,0,0,1.16-2.76,4.91,4.91,0,0,0,2.63.57,38.55,38.55,0,0,0,3.92-.36,8.36,8.36,0,0,1,3-.08,9.93,9.93,0,0,1,1.48.63,3.32,3.32,0,0,0,1.1.39c.26,0,.39-.16.39-.47a9.7,9.7,0,0,0-.28-1.29,9.46,9.46,0,0,1-.3-2c0-.26,0-1.23.08-2.91,0-1.49,0-2.65,0-3.5a5.34,5.34,0,0,0-.68-2.62Q436.93,402.29,439.5,399.56Zm-15.84-20.15a5.57,5.57,0,0,1,5-2l4.83.49c.18,2.26.33,3.87.47,4.83a5.57,5.57,0,0,1-2,4.91,5.78,5.78,0,0,1-3.51,1.48c-.81,0-1.22-.17-1.22-.62a.57.57,0,0,1,.34-.52,5.59,5.59,0,0,0,3.07-5.06,10.61,10.61,0,0,0-.21-2,10.4,10.4,0,0,0-1.95-.2,5.57,5.57,0,0,0-5.09,3.06.62.62,0,0,1-.52.34c-.45,0-.66-.4-.62-1.2A5.73,5.73,0,0,1,423.66,379.41ZM426.31,395a10.21,10.21,0,1,1-3-7.22A9.78,9.78,0,0,1,426.31,395ZM412,372.69c.41-.82,1.79-3.31,4.12-7.48q3.51,6.26,4.13,7.48,1.84,3.6,1.85,5a6.5,6.5,0,0,1-1.43,4.21,1.26,1.26,0,0,1-.91.6c-.41,0-.56-.31-.44-.91a5.56,5.56,0,0,0,.13-1.22q0-2.73-3.33-6.78-3.32,4-3.32,6.78a5.56,5.56,0,0,0,.13,1.22c.12.6,0,.91-.44.91a1.24,1.24,0,0,1-.91-.6,6.5,6.5,0,0,1-1.43-4.21Q410.13,376.29,412,372.69Zm-13.69,10c.17-1.88.33-3.49.47-4.83,2.27-.19,3.88-.35,4.83-.49a5.57,5.57,0,0,1,5,2,5.73,5.73,0,0,1,1.45,3.53c0,.8-.17,1.2-.62,1.2a.62.62,0,0,1-.52-.34,5.57,5.57,0,0,0-5.09-3.06,10.4,10.4,0,0,0-1.95.2,10.61,10.61,0,0,0-.21,2,5.59,5.59,0,0,0,3.07,5.06.57.57,0,0,1,.34.52c0,.45-.41.66-1.22.62a5.78,5.78,0,0,1-3.51-1.48A5.57,5.57,0,0,1,398.29,382.73ZM395,398.67c-1.2-1.43-2.22-2.67-3.05-3.7,1.47-1.74,2.48-3,3-3.74a5.52,5.52,0,0,1,4.33-2.11,5.81,5.81,0,0,1,4.08,1.48,1.42,1.42,0,0,1,.57,1c0,.32-.16.47-.49.47a6,6,0,0,1-1-.14,5.21,5.21,0,0,0-1.05-.14c-1.9,0-3.63,1.07-5.17,3.22,1.53,2.14,3.23,3.22,5.12,3.22a5.79,5.79,0,0,0,1.09-.16,5.74,5.74,0,0,1,1-.16c.33,0,.49.16.49.47a1.44,1.44,0,0,1-.57,1,5.81,5.81,0,0,1-4.08,1.48A5.49,5.49,0,0,1,395,398.67Zm13.57,11.8a5.57,5.57,0,0,1-5,2l-4.83-.5c-.18-2.25-.33-3.86-.47-4.83a5.56,5.56,0,0,1,2-4.9,5.78,5.78,0,0,1,3.51-1.48c.81,0,1.22.17,1.22.62a.58.58,0,0,1-.34.52,5.59,5.59,0,0,0-3.07,5.06,10.61,10.61,0,0,0,.21,2,11.31,11.31,0,0,0,1.95.2,5.57,5.57,0,0,0,5.09-3.06.6.6,0,0,1,.52-.34c.45,0,.66.4.62,1.2A5.73,5.73,0,0,1,408.55,410.47Zm11.68,6.39q-.51,1-4.13,7.47c-2.4-4.31-3.78-6.8-4.12-7.47q-1.85-3.64-1.85-5.07a6.19,6.19,0,0,1,.87-3.5c.58-.87,1.06-1.3,1.44-1.3s.5.21.5.62a5.88,5.88,0,0,1-.08.74,5.87,5.87,0,0,0-.08.77q0,2.81,3.32,6.75,3.33-3.94,3.33-6.75a5.87,5.87,0,0,0-.08-.77,5.88,5.88,0,0,1-.08-.74c0-.41.17-.62.5-.62a1.2,1.2,0,0,1,.88.54,6.58,6.58,0,0,1,1.43,4.26Q422.08,413.22,420.23,416.86Zm13.69-9.72c-.17,1.89-.33,3.5-.47,4.83-2.27.19-3.88.36-4.83.5a5.57,5.57,0,0,1-5-2,5.73,5.73,0,0,1-1.45-3.53c0-.8.17-1.2.62-1.2a.6.6,0,0,1,.52.34,5.57,5.57,0,0,0,5.09,3.06,11.31,11.31,0,0,0,1.95-.2,10.61,10.61,0,0,0,.21-2,5.59,5.59,0,0,0-3.07-5.06.58.58,0,0,1-.34-.52c0-.45.41-.66,1.22-.62a5.78,5.78,0,0,1,3.51,1.48A5.56,5.56,0,0,1,433.92,407.14Zm-1-6.33a5.81,5.81,0,0,1-4.08-1.48,1.44,1.44,0,0,1-.57-1c0-.31.16-.47.49-.47a5.74,5.74,0,0,1,1,.16,5.79,5.79,0,0,0,1.09.16c1.89,0,3.59-1.08,5.12-3.22-1.54-2.15-3.27-3.22-5.17-3.22a5.21,5.21,0,0,0-1.05.14,6,6,0,0,1-1,.14c-.33,0-.49-.15-.49-.47a1.42,1.42,0,0,1,.57-1,5.81,5.81,0,0,1,4.08-1.48,5.52,5.52,0,0,1,4.33,2.11q1.8,2.17,3,3.74c-1.47,1.71-2.48,3-3,3.73A5.52,5.52,0,0,1,432.91,400.81Z" transform="translate(-204.26 -197.02)"/><path class="cls-1" d="M416.1,388a7,7,0,1,0,4.91,2.05A6.66,6.66,0,0,0,416.1,388Zm3.68,10.63A5.21,5.21,0,1,1,421.3,395,5,5,0,0,1,419.78,398.64Z" transform="translate(-204.26 -197.02)"/><path class="cls-1" d="M612.2,247.86q22.62,0,34-2.15a56.56,56.56,0,0,0,8.76-2.67q5.12-1.84,5-2.3c-.2-1-4.8-1.26-13.8-.66q-18.84,1.26-32.26,1.26-10.24,0-12.39-1c-1.19-.49-1.19-1.09,0-1.78q6.15-2.44,10.31-3.71A17,17,0,0,0,617,231c1.53-1.58,2.59-2.38,3.19-2.38,1.58,0,2.87,1.86,3.85,5.57q3.64-3.65,3.64-6a10.51,10.51,0,0,0-1.56-4.52c-1.19-2.23-2.42-3.47-3.71-3.71-1-.2-2.17.52-3.56,2.15a49.33,49.33,0,0,1-4.74,5.19,16.53,16.53,0,0,1-5.42,3,32,32,0,0,0-4.67,1.92,21.72,21.72,0,0,0-5.34,6q-3,4.42-3,6.64a1.33,1.33,0,0,0,.22.82Q597.59,247.86,612.2,247.86Z" transform="translate(-204.26 -197.02)"/><path class="cls-1" d="M622.08,772.17q-3,0-9,6.94t-6,10.31a5.54,5.54,0,0,0,1.24,2.85q-3.11,3.91-13.69,8.63-12.11,5.33-12.1,6.75,0,.54,6.14.27a37.93,37.93,0,0,0,9.78-1.24q5.07-1.51,13.07-11.83a34.52,34.52,0,0,0,10.14,2.58c1.9.23,3.09.18,3.56-.18a13.47,13.47,0,0,0,2.31-3.65q1.78-3.47,1.78-5,0-3.47-2.58-9.78C625,774.4,623.44,772.17,622.08,772.17Zm-.89,17a15.66,15.66,0,0,1-5.25-1.07c-2-.71-3.11-1.48-3.47-2.31,1.6-3.08,3.44-4.63,5.52-4.63.53,0,1.47,1,2.8,3.12s2,3.61,2,4.62A3.69,3.69,0,0,1,621.19,789.16Z" transform="translate(-204.26 -197.02)"/><path class="cls-1" d="M294.29,680.68a10.39,10.39,0,0,0-2.37.48,30.66,30.66,0,0,0-7.88,3.78,36.71,36.71,0,0,0-7.92,6.54A16.89,16.89,0,0,1,271.5,688a5.7,5.7,0,0,0-2.11,3.51q0,1.15,3.88,4a13,13,0,0,0-1,5.25,6.46,6.46,0,0,0,1,3.78c.56.81,1.11,1.22,1.62,1.22q2,0,4.28-3a9.36,9.36,0,0,0,2.31-5.49,4.7,4.7,0,0,0-3-4.44,58.89,58.89,0,0,1,5.36-4.25q4.94-3.67,8.26-5.7c1.65-1,2.47-1.67,2.47-2C294.69,680.74,294.56,680.68,294.29,680.68ZM278.9,698.55a2.45,2.45,0,0,1-.82,1.59,2.71,2.71,0,0,1-2,1c-.76,0-1.15-.76-1.15-2.29a5.22,5.22,0,0,1,.49-2.22C277.75,697.5,278.9,698.16,278.9,698.55Z" transform="translate(-204.26 -197.02)"/><path class="cls-1" d="M512.7,213.27a4.26,4.26,0,0,0,2.22-1.34q5.79-5.27,9.2-5.27a32.61,32.61,0,0,1,6.94,1q4.41,1.05,4.41,1.78a29.71,29.71,0,0,1-7.34,5.42l-6.53,3.85q-3,2.16-3,3.34c0,.54.42.82,1.26.82a10.33,10.33,0,0,0,3.49-.89q16.39-6.53,20.69-13.58a10.62,10.62,0,0,0,1.49-5.48c0-1.49-.5-2.4-1.49-2.75q-10-3.18-16.54-3.19c-1.13,0-3.09,1.26-5.86,3.79a56.37,56.37,0,0,0-8.38,9.79,4.65,4.65,0,0,0-1,2.22A.4.4,0,0,0,512.7,213.27Z" transform="translate(-204.26 -197.02)"/><path class="cls-1" d="M801.27,491.86q0,11.86,8.15,11.87t8.16-11.87q0-11.87-8.16-11.86T801.27,491.86Zm8.15-10.23q4.68,0,4.68,10.23t-4.68,10.31q-4.67,0-4.67-10.31T809.42,481.63Z" transform="translate(-204.26 -197.02)"/><path class="cls-1" d="M311.49,471.81a9.37,9.37,0,0,0,5-8.78,10.8,10.8,0,0,0-3.61-7.87,29,29,0,0,0-7.66-5.06l-7.06-3.27a15,15,0,0,1-7.38-7.77,13.23,13.23,0,0,1-.94-4.39c0-.32-.14-.49-.49-.49s-.51.17-.49.49q-.35,8-8.31,12.16l-7.07,3.27a29.22,29.22,0,0,0-7.66,5.06,10.83,10.83,0,0,0-3.61,7.87,9.36,9.36,0,0,0,5,8.78A15.76,15.76,0,0,0,274,473.7v37.24a4,4,0,0,1-1.48,2.88.51.51,0,0,0-.21.57.55.55,0,0,0,.55.29H305.9a.55.55,0,0,0,.55-.29.51.51,0,0,0-.21-.57,4,4,0,0,1-1.48-2.88V473.7A15.84,15.84,0,0,0,311.49,471.81Zm-7,41.18H274.2a4.45,4.45,0,0,0,1-2.72V472.51c0-.3-.15-.44-.46-.44a16.1,16.1,0,0,1-5.54-.81q-5.5-2-5.5-8a9.84,9.84,0,0,1,3.43-7.32,27.72,27.72,0,0,1,7.32-4.68c2.23-1,4.47-2,6.7-3a16.7,16.7,0,0,0,5.9-5.09,13.25,13.25,0,0,0,2.28-4.91,13.13,13.13,0,0,0,2.18,4.8,16.74,16.74,0,0,0,6,5.2q3.36,1.5,6.7,3a28.68,28.68,0,0,1,7.33,4.68,9.93,9.93,0,0,1,3.42,7.32q0,6-5.5,8a16,16,0,0,1-5.53.81c-.32,0-.47.14-.47.44v37.76A4.47,4.47,0,0,0,304.53,513Z" transform="translate(-204.26 -197.02)"/><path class="cls-1" d="M309.28,463.89a7.93,7.93,0,0,0-2.65-5.79,21.66,21.66,0,0,0-5.61-3.72L295.83,452a10.94,10.94,0,0,1-5.33-5.61,9.74,9.74,0,0,1-.67-3.17c0-.31-.12-.47-.47-.47s-.5.16-.47.47q-.25,5.79-6,8.78l-5.19,2.41a21.66,21.66,0,0,0-5.61,3.72,8,8,0,0,0-2.65,5.79q0,6.54,8.57,6.88l0,39.39h22.7V470.77Q309.27,470.43,309.28,463.89Zm-19.92-17.14a9.71,9.71,0,0,0,2.42,4.1H287A11.06,11.06,0,0,0,289.36,446.75Zm-5.79,6.67c1-.53,1.74-.89,2.1-1.06h7.38c.76.36,1.46.72,2.1,1.06,2.82,1.35,5.11,2.43,6.86,3.22H276.69C279.82,455.1,282.12,454,283.57,453.42Zm-11,6.57a19,19,0,0,1,2.36-1.81h28.78a14.29,14.29,0,0,1,2.34,1.81,5.37,5.37,0,0,1,1.29,2.47h-36A5.54,5.54,0,0,1,272.61,460Zm26.7,48.69h-19.9V504.6h19.9Zm0-5.58h-19.9v-4.29h19.9Zm0-5.82h-19.9V493h19.9Zm0-5.79h-19.9v-4.28h19.9Zm0-5.82h-19.9v-4.28h19.9Zm0-5.79h-19.9v-4.31h19.9Zm0-9.68v3.87h-19.9V470.2c0-.31-.16-.47-.49-.47h20.86A.41.41,0,0,0,299.31,470.2Zm6.49-1.95H272.92a5.27,5.27,0,0,1-1.71-4.21c0-.15,0-.18,0-.07h36.26c0-.11.05-.08.05.07A5.23,5.23,0,0,1,305.8,468.25Z" transform="translate(-204.26 -197.02)"/><path class="cls-1" d="M730.72,698.91q-9.22,0-24,23.34-4.56-2-7-2-5.79,0-12.12,6.11A33.73,33.73,0,0,0,680,736.59c-.89,1.93-1,2.89-.33,2.89.44,0,1.33-.59,2.66-1.78q5.79-5.33,10.45-5.33c1.19,0,3.34.77,6.45,2.33a19.88,19.88,0,0,0,8.9,2.34q10,0,20.56-8.34,4.11-3.23,7.56-10.23,3-5.9,3-8.56a11.35,11.35,0,0,0-3.44-8.33Q733.17,698.91,730.72,698.91Zm-3.66,22.45a23.31,23.31,0,0,1-11.79,3.34,16,16,0,0,1-5.11-.78q7.56-12.67,13.78-12.67,6.9,0,8.34,4.67C732.28,717.47,730.54,719.29,727.06,721.36Z" transform="translate(-204.26 -197.02)"/><path class="cls-1" d="M816.61,515q-3.68-7.89-5.78-7.89l-4.9,8.89q9.57,10.56,9.57,22.9a12.26,12.26,0,0,1-.23,2.44c-1.11,2-4.26,4.15-9.45,6.45a45.51,45.51,0,0,1-18.67,4.11q-7.46,0-12.34-3.22A12.13,12.13,0,0,1,769,537.92q0-4.89,3.12-12.23a14.4,14.4,0,0,0,1.44-4.67c0-.37-.11-.59-.33-.67-.59,0-1.74,1.38-3.45,4.12a37,37,0,0,0-6.22,20.12q0,18.35,22.12,18.34a46.92,46.92,0,0,0,18.57-4.11q9.22-3.9,12.34-8.67,4.11-6.35,4.11-16.34A45.74,45.74,0,0,0,816.61,515Z" transform="translate(-204.26 -197.02)"/><path class="cls-1" d="M787.59,491.68l-6.34,9c.38,0,1.89,1.07,4.56,3.22s4.15,3.23,4.45,3.23c.52,0,1.7-1.13,3.56-3.39s2.78-3.95,2.78-5.06c0-.74-1.36-2.09-4.06-4.06S788.18,491.68,787.59,491.68Z" transform="translate(-204.26 -197.02)"/><path class="cls-1" d="M810.6,564.71q-3.78,0-18,5.11-12.68,4.56-13.78,5.67-1,6.22-1,7,9.78-4.34,15.34-6.33,11-3.78,15.9-5.34A36.23,36.23,0,0,0,810.6,564.71Z" transform="translate(-204.26 -197.02)"/><path class="cls-1" d="M345.93,423.39a68.31,68.31,0,0,0,1.95-8.46q-14.69,5.77-26.73,10.78t-14.46,6.22c-.4.2-.9,1.62-1.49,4.27a25.88,25.88,0,0,0-.9,4.94q3.74-1.87,20.07-8.46Q344.82,424.45,345.93,423.39Z" transform="translate(-204.26 -197.02)"/><path class="cls-1" d="M368.62,383.11q-8.39,4.2-25.68,13.1-10.94,5.63-13.48,7.27c-.35.2-.76,1.43-1.24,3.7a29.46,29.46,0,0,0-.71,5.81q4.35-2.55,19.25-10.11,19.69-10,20.67-11.16A79.57,79.57,0,0,0,368.62,383.11Z" transform="translate(-204.26 -197.02)"/><path class="cls-1" d="M489,227.42q6.28,0,11-6.29a20.42,20.42,0,0,0,4.27-12.2,10.47,10.47,0,0,0-2.36-7,7.11,7.11,0,0,0-5.58-2.77q-3.6,0-9.06,9-5.17,8.61-5.17,13.11Q482.08,227.42,489,227.42Zm-.82-16.14c1.54-2.32,2.92-3.48,4.12-3.48a9.74,9.74,0,0,1,5.87,1.72,5.13,5.13,0,0,1,2.36,4.27q0,2.55-3.22,4a12.81,12.81,0,0,1-5.39,1.12c-2.84,0-4.87-.72-6.06-2.17C485.83,215.41,486.6,213.61,488.15,211.28Z" transform="translate(-204.26 -197.02)"/><path class="cls-1" d="M483.11,652q9.93-6.08,9.93-7.86c0-.49-.54-.74-1.63-.74-1.78,0-4.94.65-9.48,1.93q-13.49,3.71-31.56,15.11-19.56,12.45-31.71,26.22-6.07-2.22-18.52-14.07-5.92,4-8.45,14.07,0,4.61,15.56,16-3.86,8.75-3.85,21,0,9.2,4.15,15.11,3.4,4.89,6.52,4.89,7.85,0,17.11-12.07t9.26-22q0-12-11.85-17.78,3.56-3.71,21.48-17Q469.78,660.11,483.11,652Zm-53.34,63q0,3-3.26,6.37-3.69,3.86-7.85,3.85-4.59,0-4.59-9.18a20.89,20.89,0,0,1,1.92-8.89Q429.78,712.56,429.77,714.93Z" transform="translate(-204.26 -197.02)"/><path class="cls-1" d="M685.55,534.71q-1.12,0-8.72,11.35t-7.6,12.76q0,1.42,7.6,12.47t8.8,11.05q1.18,0,8.38-11t7.19-12.51q0-1.41-7.22-12.76T685.55,534.71Zm11.23,24.11q0,1.13-5.13,9.74t-6,8.61q-.82,0-6.44-8.65t-5.62-9.7q0-1.11,5.58-10t6.4-8.91q.9,0,6.07,9C695.06,554.79,696.78,558.13,696.78,558.82Z" transform="translate(-204.26 -197.02)"/><path class="cls-1" d="M769.83,441.6q-5.77,0-12.11,6.11a33.73,33.73,0,0,0-7.56,10.23c-.89,1.93-1,2.89-.34,2.89.45,0,1.34-.59,2.67-1.78q5.78-5.34,10.45-5.33c1.19,0,3.34.77,6.45,2.33a19.86,19.86,0,0,0,8.89,2.33q10,0,20.57-8.33,4.11-3.23,7.56-10.23,3-5.9,3-8.56a11.36,11.36,0,0,0-3.45-8.34c-1.77-1.77-3.48-2.66-5.11-2.66q-9.23,0-24,23.34Q772.28,441.6,769.83,441.6Zm24.24-9q6.88,0,8.34,4.66c0,1.56-1.75,3.38-5.23,5.45a23.35,23.35,0,0,1-11.78,3.34,16.08,16.08,0,0,1-5.12-.78Q787.84,432.6,794.07,432.6Z" transform="translate(-204.26 -197.02)"/><path class="cls-1" d="M408.22,772.08a9.89,9.89,0,0,0,2.34-5.5,12.42,12.42,0,0,0-1.19-5.66,23.45,23.45,0,0,0-2.39-4c-1.53-2.15-2.77-3.22-3.74-3.22s-2.39,1.3-3.85,3.89a10.92,10.92,0,0,0-1.61,5.25,3.6,3.6,0,0,0,.11.88,5.77,5.77,0,0,0,1.71,2.81,4.1,4.1,0,0,0,2.86,1.29c1.59,0,3-.91,4.31-2.75a6.71,6.71,0,0,1,1.3,3.17,10.36,10.36,0,0,1-4.11,2,18.21,18.21,0,0,1-5.19,1,12.58,12.58,0,0,1-5.35-.94,6.54,6.54,0,0,0,2.7-5.14,13.09,13.09,0,0,0-1.09-5.24c-.83-1.84-1.82-2.89-3-3.17s-2.69.87-4.65,3.43-3,4.86-3.09,6.9a5,5,0,0,0,.42,2.55,64.12,64.12,0,0,1-17.14,2.39,79.56,79.56,0,0,1-12.68-1q-6.23-1-5.87-1a.5.5,0,0,0-.36.11c-.17.24.5.9,2,2a24.74,24.74,0,0,0,6.34,3.27A30.31,30.31,0,0,0,367.24,777a74.34,74.34,0,0,0,21.09-3.43,13.1,13.1,0,0,0,8.36,2.75Q404.75,776.29,408.22,772.08Zm-4.72-9.34a3.1,3.1,0,0,1-2-.78q-.93-.78-.93-1.2a3,3,0,0,1,.65-1.35c.43-.62.78-.93,1.06-.93s1.35,1.23,2.91,3.69A2.76,2.76,0,0,1,403.5,762.74ZM389.42,768c-1.8-.69-2.7-1.68-2.7-3a5.67,5.67,0,0,1,1.84-2.28,4.56,4.56,0,0,1,2.16-1.3c.31,0,.73.55,1.25,1.64a6.43,6.43,0,0,1,.77,2.46C392.74,766.25,391.64,767.06,389.42,768Z" transform="translate(-204.26 -197.02)"/><path class="cls-1" d="M404.48,743.16c-1.21,1.52-2,2.54-2.39,3.06a23.82,23.82,0,0,0-3.58-2.44l-2.8,3.84q2.18,1.67,3.63,2.81c.52,0,1.49-1,2.91-3,1.45,1,2.55,1.76,3.27,2.28.28,0,.81-.55,1.59-1.66a5.68,5.68,0,0,0,1.17-2.18c0-.24-.58-.76-1.72-1.56A16.36,16.36,0,0,0,404.48,743.16Z" transform="translate(-204.26 -197.02)"/><path class="cls-1" d="M391.19,750.64a5,5,0,0,0,1.19-2.13c0-.28-.55-.83-1.66-1.64a6.51,6.51,0,0,0-2-1.22l-2.8,3.79q2.39,1.66,3.69,2.75C389.85,752.19,390.39,751.67,391.19,750.64Z" transform="translate(-204.26 -197.02)"/><path class="cls-1" d="M560.37,804.27a11.33,11.33,0,0,1,3.36,2.41,5.7,5.7,0,0,0,2.11-3.52c0-.64-.87-1.6-2.63-2.88a12.85,12.85,0,0,0,1-5.25,6.26,6.26,0,0,0-1.08-3.78c-.54-.81-1.07-1.22-1.59-1.22-1.3,0-2.73,1-4.27,3a9.36,9.36,0,0,0-2.31,5.49,4.68,4.68,0,0,0,3,4.44,64,64,0,0,1-5.29,4.18q-5,3.74-8.33,5.77c-1.65,1-2.48,1.67-2.48,2,0,.12.14.19.41.19a10.59,10.59,0,0,0,2.37-.48,30.81,30.81,0,0,0,7.88-3.78A36.93,36.93,0,0,0,560.37,804.27Zm-2.78-7.06a2.57,2.57,0,0,1,.87-1.65,2.62,2.62,0,0,1,1.91-.9c.76,0,1.14.76,1.14,2.29a5.21,5.21,0,0,1-.48,2.22C558.74,798.26,557.59,797.6,557.59,797.21Z" transform="translate(-204.26 -197.02)"/><path class="cls-1" d="M576.24,801.31a13,13,0,0,0,1-5.25,6.41,6.41,0,0,0-1-3.77c-.56-.82-1.11-1.22-1.62-1.22q-2,0-4.28,3a9.36,9.36,0,0,0-2.31,5.5,4.71,4.71,0,0,0,3,4.44,64.38,64.38,0,0,1-5.29,4.18q-5,3.74-8.33,5.77c-1.65,1-2.47,1.66-2.47,2,0,.12.13.18.4.18a10.39,10.39,0,0,0,2.37-.48,30.58,30.58,0,0,0,7.88-3.77,36.74,36.74,0,0,0,7.92-6.55,16.89,16.89,0,0,1,4.62,3.51,5.65,5.65,0,0,0,2.11-3.51C580.12,804.55,578.83,803.21,576.24,801.31Zm-2.18-1.11c-2.3-.91-3.45-1.56-3.45-2a2.53,2.53,0,0,1,.87-1.64,2.6,2.6,0,0,1,1.91-.91c.76,0,1.15.77,1.15,2.3A5.2,5.2,0,0,1,574.06,800.2Z" transform="translate(-204.26 -197.02)"/></svg>